<?xml version="1.0" encoding="utf-8"?>
<!-- Generator: Adobe Illustrator 27.3.1, SVG Export Plug-In . SVG Version: 6.00 Build 0)  -->
<svg version="1.1" id="Layer_1" xmlns="http://www.w3.org/2000/svg" xmlns:xlink="http://www.w3.org/1999/xlink" x="0px" y="0px"
	 viewBox="0 0 1920 1080" style="enable-background:new 0 0 1920 1080;" xml:space="preserve">
<style type="text/css">
	.st0{fill:#FFFFFF;}
	.st1{display:none;}
</style>
<g>
	<rect x="219" y="391" width="633" height="252"/>
	<path class="st0" d="M432.13,630.79h-54.72l-91.52-138.56v138.56H245.7c-8.03,0-14.53-6.51-14.53-14.53V420.68
		c0-8.03,6.51-14.53,14.53-14.53h40.19l91.52,139.2v-139.2h54.72V630.79z"/>
	<path class="st1" d="M526.53,449.99v45.44h73.28v42.24h-73.28v49.28h82.88v43.84h-137.6V406.15h137.6v43.84H526.53z"/>
	<path class="st0" d="M782.52,630.79l-45.76-68.8l-40.32,68.8h-62.08l72-114.24l-73.6-110.4h63.68l45.12,67.84l39.68-67.84h54.21
		c3.42,0,5.5,3.76,3.67,6.66l-67.17,106.62l69.74,104.61c1.92,2.89-0.14,6.75-3.61,6.75H782.52z"/>
	<path d="M1074.68,630.79h-54.72l-91.52-138.56v138.56h-54.72V406.15h54.72l91.52,139.2v-139.2h54.72V630.79z"/>
	<path d="M1162.52,618.31c-17.6-9.81-31.58-23.52-41.92-41.12c-10.35-17.6-15.52-37.39-15.52-59.36c0-21.97,5.17-41.71,15.52-59.2
		c10.34-17.49,24.32-31.15,41.92-40.96c17.6-9.81,36.96-14.72,58.08-14.72s40.48,4.91,58.08,14.72c17.6,9.81,31.46,23.47,41.6,40.96
		c10.13,17.5,15.2,37.23,15.2,59.2c0,21.97-5.12,41.76-15.36,59.36c-10.24,17.6-24.11,31.31-41.6,41.12
		c-17.5,9.82-36.8,14.72-57.92,14.72S1180.12,628.12,1162.52,618.31z M1263.64,565.19c10.77-11.95,16.16-27.73,16.16-47.36
		c0-19.84-5.39-35.68-16.16-47.52c-10.78-11.84-25.12-17.76-43.04-17.76c-18.13,0-32.59,5.87-43.36,17.6
		c-10.77,11.73-16.16,27.63-16.16,47.68c0,19.84,5.39,35.68,16.16,47.52c10.77,11.84,25.23,17.76,43.36,17.76
		C1238.52,583.11,1252.87,577.14,1263.64,565.19z"/>
	<path d="M1576.76,406.15l-79.68,224.64h-68.48l-79.68-224.64h58.24l55.68,169.6l56-169.6H1576.76z"/>
	<path d="M1739.32,591.11h-83.84l-13.44,39.68h-57.28l81.28-224.64h51.98c6.83,0,12.93,4.28,15.26,10.71l69.54,192.19
		c3.83,10.58-4.01,21.75-15.26,21.75h-34.79L1739.32,591.11z M1725.24,548.87l-27.84-82.24l-27.52,82.24H1725.24z"/>
</g>
<rect x="472" y="404" class="st0" width="137" height="44"/>
<rect x="472" y="492" class="st0" width="137" height="44"/>
<rect x="472" y="585" class="st0" width="137" height="44"/>
</svg>
